<?xml version="1.0" standalone="no"?><!DOCTYPE svg PUBLIC "-//W3C//DTD SVG 1.1//EN" "http://www.w3.org/Graphics/SVG/1.1/DTD/svg11.dtd"><svg t="1661070395907" class="icon" viewBox="0 0 1024 1024" version="1.1" xmlns="http://www.w3.org/2000/svg" p-id="1744" xmlns:xlink="http://www.w3.org/1999/xlink" width="200" height="200"><defs><style type="text/css">@font-face { font-family: feedback-iconfont; src: url("//at.alicdn.com/t/font_1031158_u69w8yhxdu.woff2?t=1630033759944") format("woff2"), url("//at.alicdn.com/t/font_1031158_u69w8yhxdu.woff?t=1630033759944") format("woff"), url("//at.alicdn.com/t/font_1031158_u69w8yhxdu.ttf?t=1630033759944") format("truetype"); }
</style></defs><path d="M731.428571 310.857143m-292.571428 0a292.571429 292.571429 0 1 0 585.142857 0 292.571429 292.571429 0 1 0-585.142857 0Z" fill="#FBEFD8" p-id="1745"></path><path d="M897.152 167.186286L521.106286 91.428571h-15.140572L129.901714 167.186286C117.284571 169.691429 109.714286 179.803429 109.714286 192.420571v328.265143c0 249.965714 199.387429 429.238857 398.774857 479.744h10.093714c196.864-50.505143 398.756571-229.778286 398.756572-479.744V192.420571c0-12.617143-7.570286-22.710857-20.187429-25.234285z" fill="#FFFFFF" p-id="1746"></path><path d="M897.152 167.186286L521.106286 91.428571h-15.140572L129.901714 167.186286C117.284571 169.691429 109.714286 179.803429 109.714286 192.420571v328.265143c0 249.965714 199.387429 429.238857 398.774857 479.744h10.093714c196.864-50.505143 398.756571-229.778286 398.756572-479.744V192.420571c0-12.617143-7.570286-22.710857-20.187429-25.234285z m-71.241143 78.902857v274.596571c0 177.938286-136.758857 333.677714-312.502857 386.304C336.822857 854.765714 201.142857 699.629714 201.142857 520.685714V246.089143l312.393143-62.921143 312.374857 62.921143z" fill="#504F51" p-id="1747"></path><path d="M475.428571 493.714286v-146.285715a36.571429 36.571429 0 1 1 73.142858 0v146.285715h146.285714a36.571429 36.571429 0 1 1 0 73.142857h-146.285714v146.285714a36.571429 36.571429 0 1 1-73.142858 0v-146.285714h-146.285714a36.571429 36.571429 0 1 1 0-73.142857h146.285714z" fill="#CB9D6D" p-id="1748"></path></svg>